<?xml version="1.0" encoding="utf-8"?>
<!-- Generator: Adobe Illustrator 27.8.0, SVG Export Plug-In . SVG Version: 6.00 Build 0)  -->
<svg version="1.1" id="Layer_1" xmlns="http://www.w3.org/2000/svg" xmlns:xlink="http://www.w3.org/1999/xlink" x="0px" y="0px"
	 viewBox="0 0 64 64" enable-background="new 0 0 64 64" xml:space="preserve">
<g>
	<path d="M38.6,23.9c-0.1,0-0.1,0-0.2-0.1c-0.5-0.7-1.7-0.7-2.6,0c-0.1,0.1-0.2,0.1-0.3,0c-0.1-0.1-0.1-0.2,0-0.3
		c1-0.8,2.5-0.8,3.1,0.1c0.1,0.1,0.1,0.2,0,0.3C38.7,23.9,38.7,23.9,38.6,23.9"/>
	<path d="M23.1,49l10,5.9c0.6,0.4,1.4,0.5,2.1,0.3l13-3.9c0.3-0.1,0.7-0.1,1-0.1l8.2,0.3V44l-7.6,0.7c-0.3,0-0.6,0-0.9-0.1L42.3,42
		c-0.5-0.2-1.1,0-1.3,0.5c-0.2,0.4-0.1,0.9,0.1,1.2l2.4,2.8l-7.8,3.2c-0.5,0.2-1.2,0.3-1.7,0.1l-10.2-2.7c-0.4-0.1-0.8,0.1-1,0.5
		C22.5,48.1,22.7,48.7,23.1,49"/>
	<path d="M40.9,15l-10-5.9c-0.6-0.4-1.4-0.5-2.1-0.3l-13,3.9c-0.3,0.1-0.7,0.1-1,0.1l-8.2-0.3V20l7.6-0.7c0.3,0,0.6,0,0.9,0.1
		l6.7,2.5c0.5,0.2,1.1,0,1.4-0.5c0.2-0.4,0.1-0.9-0.1-1.2l-2.4-2.8l7.8-3.2c0.5-0.2,1.2-0.3,1.7-0.1l10.2,2.7c0.4,0.1,0.8-0.1,1-0.5
		C41.5,15.9,41.3,15.3,40.9,15"/>
	<path d="M36.1,23.4L36.1,23.4c0,4.7-3.9,8.5-8.6,8.4C27.6,27.1,31.4,23.4,36.1,23.4"/>
	<path d="M27.6,31.9C27.6,31.9,27.6,31.9,27.6,31.9l-0.1,0L27.6,31.9c-0.1-2.3,0.8-4.5,2.4-6.1c1.6-1.6,3.7-2.5,6-2.5h0.1l0,0l0,0
		c0,2.3-0.9,4.4-2.5,6C32,31,29.9,31.9,27.6,31.9 M27.6,31.8L27.6,31.8c2.3,0,4.4-0.9,6-2.4c1.6-1.6,2.5-3.7,2.5-5.9h0
		c-2.2,0-4.3,0.9-5.9,2.4C28.5,27.4,27.6,29.5,27.6,31.8"/>
	<path d="M27.5,32.1l-0.2-0.2l2.9-3.3c0.7-0.8,1.5-1.6,2.3-2.3l3.4-2.9l0.2,0.2l-3.4,2.9c-0.8,0.7-1.6,1.4-2.3,2.2L27.5,32.1z"/>
	<path d="M33.7,42c-6.7,0-12.1-5.4-12.1-12.1c0-6.7,5.4-12.1,12.1-12.1c6.7,0,12.1,5.4,12.1,12.1C45.7,36.6,40.3,42,33.7,42
		 M33.7,19.5c-5.8,0-10.5,4.7-10.5,10.5c0,5.8,4.7,10.5,10.5,10.5c5.8,0,10.5-4.7,10.5-10.5C44.2,24.2,39.5,19.5,33.7,19.5"/>
	<path d="M31.7,37.9C31.7,37.9,31.7,37.9,31.7,37.9c-0.3,0-0.6-0.2-0.7-0.4l-3.9-6c-0.2-0.4-0.1-0.9,0.2-1.1
		c0.4-0.2,0.9-0.1,1.1,0.2l3.2,5l7.1-9.5c0.3-0.4,0.8-0.4,1.2-0.2c0.4,0.3,0.4,0.8,0.2,1.2l-7.8,10.5C32.2,37.7,32,37.9,31.7,37.9"
		/>
</g>
</svg>
