<?xml version="1.0" encoding="utf-8"?>
<!-- Generator: Adobe Illustrator 27.8.0, SVG Export Plug-In . SVG Version: 6.00 Build 0)  -->
<svg version="1.1" id="Layer_1" xmlns="http://www.w3.org/2000/svg" xmlns:xlink="http://www.w3.org/1999/xlink" x="0px" y="0px"
	 viewBox="0 0 64 64" enable-background="new 0 0 64 64" xml:space="preserve">
<path d="M56.4,26.3c-0.6,0-1.5,0.3-1.9,1c-0.3,0.4-2.1,3.2-2.4,4.8c0,0,0,0,0,0c0,0-0.8,3.6-0.9,3.7c0,0.1-0.1,0.1-0.2,0.1
	c-0.8,0-3.3-1.5-4.8-3.2c-0.1-0.1-0.1-0.2-0.2-0.3c-0.1-0.3-3.2-9.6-4.9-13.6c-0.5-1.1-1.1-1.5-1.7-1.5c-0.6,0-1.1,0.3-1.4,0.7
	c-0.5,0.6,0.5,3.7,1.5,7.8l1.3,4.4c0.1,0.4,0,0.9-0.2,1.3c0,0,0,0-0.1,0.1c-0.1,0.1-0.2,0.2-0.3,0.2h0c-0.1,0-0.3-0.1-0.3-0.2
	c-0.7-1.6-2.8-6.2-5.8-11.9c-0.2-0.4-0.7-0.6-1.2-0.6c-0.3,0-0.6,0.1-0.9,0.2c-0.4,0.1-0.8,0.5-1,0.8c-0.2,0.4-0.2,0.8,0,1.2
	c0.8,1.9,3.4,8,5.3,11.9c0.2,0.4,0.2,0.8,0,1.2c0,0,0,0,0,0c-0.1,0.1-0.2,0.2-0.3,0.2c0,0,0,0-0.1,0c-0.1,0-0.2-0.1-0.3-0.2
	c-1-1.5-4-5.9-6.3-10.2c-0.3-0.5-0.9-1-1.5-1c-0.6,0-1.1,0.4-1.4,1.5c-0.1,0.4-0.1,0.8,0.1,1.1c0.3,0.5,0.8,1.5,2,3.6l2.6,4.1
	l2.3,3.2c0.3,0.4,0.3,0.9,0.1,1.4c0,0,0,0,0,0c-0.1,0.2-0.3,0.3-0.5,0.3c-0.1,0-0.3,0-0.3-0.2c-0.4-0.5-1.2-1.4-2.7-3.2l-2.1-2.6
	c0,0-1.1-1.6-2.2-1.6c-0.1,0-0.1,0-0.2,0c0,0-1.3,0.6-0.4,2.1c0,0,6,9.4,7.9,12.2c0,0,4.4,6,5.5,7.2c2.8,3.2,4.5,3.8,4.6,3.9l10-6
	c-0.4-2,0.7-6.4,0.7-6.4c0-0.1,2.4-11.7,2.4-11.7c0-0.3,1-4.4,1.3-5.3C57.4,26.6,57,26.3,56.4,26.3 M22.6,34.8L22.6,34.8
	c-1-1.6-0.8-2.9-0.6-3.8c0.5-1.6,1.8-2.4,2.2-2.6l0.2-0.1l-0.5-0.9c-0.6-1-0.7-2.2-0.4-3.3c0.7-2.7,2.7-3.7,4.3-3.7c0,0,0.1,0,0.1,0
	c0-0.5,0.2-1.1,0.4-1.6c0.5-1.1,1.5-1.9,2.6-2.3c0.6-0.2,1.3-0.3,1.9-0.3c0.9,0,1.7,0.2,2.4,0.6c0.1-0.2,0.3-0.4,0.4-0.7
	c0.9-1.1,2.3-1.8,3.6-1.8c0.9,0,3.1,0.3,4.4,3.2c1.3,2.9,3.2,8.5,4.3,11.6c1.2-6.6,2.9-12.6,0-20.4c-10.8-4.7-21,3.6-39.3,0
	c5.2,22.5-6.5,23,0,37.7c9.6,0.9,16.1,0.2,21-0.6C27.4,42.4,22.8,35.2,22.6,34.8L22.6,34.8z"/>
</svg>
