<?xml version="1.0" encoding="utf-8"?>
<!-- Generator: Adobe Illustrator 27.8.0, SVG Export Plug-In . SVG Version: 6.00 Build 0)  -->
<svg version="1.1" id="Layer_1" xmlns="http://www.w3.org/2000/svg" xmlns:xlink="http://www.w3.org/1999/xlink" x="0px" y="0px"
	 viewBox="0 0 64 64" enable-background="new 0 0 64 64" xml:space="preserve">
<g>
	<path d="M21.8,51.3c-1.5-0.5-2.9-1.1-4.4-1.6c-1.5-0.5-2-1.6-1.5-3c0.2-0.4,0.3-0.9,0.5-1.3c0.1-0.2,0.1-0.4-0.1-0.5
		c-0.5-0.3-0.9-0.7-1.4-1.1c-0.2-0.1-0.3-0.2-0.5-0.1c-0.4,0.3-0.9,0.5-1.4,0.8c-1.2,0.7-2.4,0.3-3-0.8c-0.7-1.3-1.5-2.5-2.2-3.8
		c-0.6-1-0.3-2.2,0.7-2.8c0.5-0.3,1-0.6,1.5-0.9c0.2-0.1,0.3-0.3,0.2-0.5c-0.1-0.6-0.2-1.1-0.3-1.7c0-0.2-0.1-0.3-0.3-0.3
		c-0.6-0.1-1.1-0.2-1.7-0.3c-1.2-0.2-2-1.3-1.8-2.4c0.2-1.4,0.5-2.9,0.8-4.3c0.2-1.3,1.3-2,2.6-1.8c0.5,0.1,1,0.2,1.6,0.3
		c0.2,0,0.3,0,0.4-0.2c0.3-0.5,0.6-1,0.9-1.5c0.1-0.2,0.2-0.3,0-0.5c-0.4-0.4-0.7-0.9-1.1-1.3c-0.8-1-0.7-2.2,0.2-3
		c1.1-1,2.3-1.9,3.4-2.9c1-0.8,2.2-0.6,3,0.3c0.4,0.4,0.7,0.9,1.1,1.3c0.2,0.2,0.3,0.2,0.5,0.1c0.4-0.2,0.9-0.4,1.4-0.5
		c0.3-0.1,0.4-0.3,0.4-0.6c0-0.6-0.1-1.3,0-1.9c0.1-0.9,0.6-1.5,1.5-1.7c0.1,0,0.1-0.1,0.1-0.1c1.9,0,3.7,0,5.6,0
		c0,0.1,0.1,0.1,0.2,0.1c0.9,0.3,1.5,1,1.5,2c0,0.6,0,1.2,0,1.8c0,0.2,0,0.3,0.2,0.3c0.5,0.1,1,0.3,1.5,0.6c0.2,0.1,0.4,0.1,0.5-0.1
		c0.3-0.4,0.7-0.9,1-1.3c0.7-0.9,2-1.1,2.9-0.4c1.2,1,2.5,2,3.7,3c0.8,0.7,0.8,1.9,0.2,2.8c-0.4,0.5-0.8,1-1.2,1.4
		c-0.1,0.2-0.2,0.3,0,0.4c0.3,0.5,0.6,1,0.9,1.5c0.1,0.2,0.2,0.3,0.4,0.2c0.7-0.1,1.4-0.3,2.1-0.3c1,0,1.8,0.5,2,1.5
		c0.2,0.8,0.3,1.6,0.4,2.3c0,0.1,0,0.2-0.1,0.4c-0.6,0.6-1.2,1.2-1.9,1.9c-0.2-1-0.4-1.9-0.5-2.8c-0.2-1-0.1-1-1.1-0.8
		c-0.8,0.1-1.6,0.2-2.4,0.4c-0.2,0-0.3,0-0.4-0.2c-0.6-1.5-1.4-2.9-2.4-4.2c-0.2-0.2-0.2-0.4,0-0.6c0.7-0.7,1.3-1.5,1.9-2.3
		c0.2-0.2,0.2-0.3,0-0.5c-0.8-0.7-1.7-1.4-2.5-2.1c-0.2-0.2-0.3-0.2-0.5,0.1c-0.6,0.8-1.3,1.5-1.9,2.3c-0.2,0.2-0.3,0.2-0.5,0.1
		c-1.4-0.8-2.9-1.3-4.5-1.6c-0.3-0.1-0.4-0.2-0.4-0.5c0-1,0-2,0-3c0-0.2-0.1-0.3-0.3-0.3c-1.1,0-2.3,0-3.4,0c-0.3,0-0.2,0.2-0.2,0.3
		c0,1,0,2,0,3c0,0.3-0.1,0.4-0.3,0.4c-1.6,0.3-3.2,0.8-4.6,1.7c-0.2,0.1-0.3,0.1-0.5-0.1c-0.6-0.8-1.2-1.5-1.8-2.2
		c-0.2-0.3-0.4-0.3-0.7-0.1c-0.7,0.7-1.5,1.3-2.3,1.9c-0.3,0.2-0.3,0.3-0.1,0.6c0.7,0.7,1.3,1.5,1.9,2.3c0.2,0.2,0.2,0.3,0,0.5
		c-1.1,1.3-1.9,2.7-2.5,4.2c-0.1,0.2-0.2,0.3-0.4,0.2c-1-0.2-2-0.4-3-0.5c-0.3,0-0.3,0-0.4,0.3c-0.2,1.1-0.3,2.1-0.6,3.2
		c-0.1,0.3,0,0.4,0.3,0.4c0.9,0.1,1.9,0.3,2.8,0.5c0.3,0,0.4,0.2,0.4,0.5c0,1.6,0.3,3.2,0.8,4.7c0.1,0.2,0,0.3-0.2,0.4
		c-0.9,0.5-1.7,1-2.6,1.5c-0.2,0.1-0.3,0.2-0.1,0.5c0.6,0.9,1.1,1.9,1.6,2.8c0.1,0.2,0.2,0.3,0.5,0.1c0.8-0.5,1.7-1,2.6-1.5
		c0.2-0.1,0.3-0.1,0.5,0.1c1.1,1.3,2.3,2.3,3.8,3.2c0.2,0.1,0.2,0.3,0.1,0.5c-0.3,0.9-0.7,1.8-1,2.7c-0.1,0.3-0.1,0.4,0.2,0.5
		c1,0.3,2,0.7,3,1.1c0.3,0.1,0.3,0,0.4-0.2c0.3-0.9,0.7-1.8,1-2.8c0.1-0.2,0.2-0.3,0.5-0.3c1.6,0.3,3.3,0.3,4.9,0
		c0.2,0,0.3,0,0.3,0.2c0.3,0.9,0.7,1.9,1,2.8c0.1,0.2,0.1,0.3,0.4,0.2c1-0.4,2-0.8,3.1-1.1c0.3-0.1,0.3-0.2,0.2-0.5
		c-0.4-0.9-0.7-1.9-1-2.8c0-0.1-0.1-0.1,0-0.2c0.2,0,0.2,0.1,0.3,0.2c1,1,2,2,3.1,3c0.2,0.2,0.3,0.5,0.2,0.8
		c-0.2,0.7-0.6,1.2-1.3,1.5c-1.6,0.6-3.1,1.1-4.7,1.7c-0.1,0-0.3,0-0.4,0c0,0-0.1-0.1-0.1-0.1c-0.8-0.1-1.4-0.6-1.7-1.4
		c-0.2-0.5-0.4-1-0.5-1.5C27,48.1,26.9,48,26.6,48c-0.2,0-0.5,0.1-0.7,0.1c-0.4,0-0.9-0.3-1.3,0c-0.3,0.3-0.4,0.8-0.5,1.2
		c-0.3,1-0.9,1.7-1.9,1.9C22.1,51.3,21.9,51.3,21.8,51.3z"/>
	<path d="M57.7,30.6c-0.1,0.1-0.2,0.2-0.3,0.3c-2.5,2.5-5,5-7.6,7.6c-3.5,3.5-7,7-10.4,10.5c-0.3,0.3-0.4,0.3-0.8,0
		c-3.1-3.4-6.5-6.6-9.8-9.9c-0.3-0.3-0.4-0.5,0-0.8c1.9-1.9,3.9-3.8,5.8-5.8c0.2-0.2,0.3-0.3,0.6,0c1.2,1.2,2.4,2.4,3.6,3.6
		c0.2,0.3,0.4,0.2,0.6,0c3.8-3.9,7.7-7.7,11.5-11.6c0.2-0.2,0.4-0.3,0.6,0c1.9,2,3.9,3.9,5.8,5.9C57.6,30.4,57.6,30.5,57.7,30.6z
		 M39.2,45.9c0.1-0.1,0.1-0.2,0.2-0.3c4.9-4.9,9.8-9.8,14.7-14.7c0.2-0.2,0.2-0.4,0-0.6c-0.8-0.8-1.7-1.6-2.5-2.5
		c-0.3-0.3-0.4-0.3-0.7,0c-3.8,3.9-7.7,7.7-11.6,11.6c-0.2,0.2-0.3,0.2-0.5,0c-1.2-1.2-2.4-2.4-3.6-3.6c-0.1-0.1-0.2-0.3-0.5-0.1
		c-0.9,0.9-1.8,1.8-2.7,2.7c-0.2,0.2-0.2,0.3,0,0.4c2.3,2.3,4.6,4.6,6.8,6.8C39,45.7,39.1,45.8,39.2,45.9z"/>
	<path d="M27.7,39.4c-4.5,1-8.7-1.8-9.5-6.2c-0.7-4.2,2.1-8.1,6.3-8.8c4.3-0.7,8.2,2.2,8.9,6.5c0,0,0,0.1,0,0.1
		c0.2,0.8-0.1,1.4-0.7,1.9c-1.8,1.8-3.6,3.6-5.4,5.4c-0.3,0.3-0.3,0.5,0,0.7C27.4,39.1,27.5,39.2,27.7,39.4z M20.5,32
		c0,2.6,2.1,5.3,5.3,5.3c3.1,0,5.3-2.5,5.3-5.3c0-2.7-2.1-5.3-5.2-5.3C22.7,26.6,20.5,29.2,20.5,32z"/>
	<path d="M42.7,31.1c-1.2,1.2-2.3,2.3-3.5,3.5c-0.1-0.3,0.1-0.5,0.1-0.8c0.1-0.6,0.1-1.2,0.1-1.8c0-0.1,0-0.3,0.2-0.3
		C40.5,31.5,41.6,31.3,42.7,31.1z"/>
</g>
</svg>
