<?xml version="1.0" encoding="utf-8"?>
<!-- Generator: Adobe Illustrator 27.8.0, SVG Export Plug-In . SVG Version: 6.00 Build 0)  -->
<svg version="1.1" id="Layer_1" xmlns="http://www.w3.org/2000/svg" xmlns:xlink="http://www.w3.org/1999/xlink" x="0px" y="0px"
	 viewBox="0 0 64 64" enable-background="new 0 0 64 64" xml:space="preserve">
<g>
	<path d="M56.9,36.2c0-0.1-6.7-11.6-6.7-11.6l-8.7,5.1L49.7,44c0.8,1.3,1.5,2.7,1.9,3.7c0.4,1.2,0.3,2.3,0.1,3.2
		c0.2-0.3,0.4-0.5,0.6-0.8l4.5-7.8C57.8,40.4,57.9,38.1,56.9,36.2"/>
	<path d="M48.7,44.6l-0.8-1.4h-8.2V40l-3.1,4.1l-3.2,4.1l3.2,4.1l3.1,4.1v-3.1H47c1,0,2-0.4,2.7-1c0.5-0.5,1.4-2,0.8-4.2
		C50.2,47.1,49.5,45.8,48.7,44.6"/>
	<path d="M21.4,10.6c0,0.1-6.7,11.6-6.7,11.6l8.8,5l8.3-14.3c0.8-1.3,1.6-2.7,2.3-3.5c0.9-0.9,1.8-1.4,2.7-1.7
		c-0.3-0.1-0.7-0.1-1-0.1h-9C24.6,7.6,22.5,8.7,21.4,10.6"/>
	<path d="M32.7,13.4l-0.8,1.4l4.1,7.1l-2.8,1.6l5.1,0.7l5.1,0.7l2-4.8l2-4.8l-2.7,1.6l-3.6-6.3c-0.5-0.8-1.3-1.6-2.3-1.9
		c-0.7-0.2-2.4-0.3-4,1.4C34.2,10.9,33.4,12.2,32.7,13.4"/>
	<path d="M16.8,53.9c0.1,0,13.4,0,13.4,0l0-10.1l-16.5,0c-1.5,0-3.1,0-4.2-0.3c-1.2-0.3-2.1-0.9-2.8-1.5c0.1,0.3,0.3,0.6,0.4,0.9
		l4.5,7.8C12.7,52.6,14.7,53.8,16.8,53.9"/>
	<path d="M13.6,42.7h1.6l4.1-7.1l2.8,1.6l-2-4.8l-2-4.8L13,28.3L7.9,29l2.7,1.6L7,36.8c-0.5,0.9-0.7,1.9-0.5,2.9
		c0.1,0.7,1,2.2,3.2,2.7C10.7,42.7,12.2,42.7,13.6,42.7"/>
</g>
</svg>
