<?xml version="1.0" encoding="utf-8"?>
<!-- Generator: Adobe Illustrator 27.8.0, SVG Export Plug-In . SVG Version: 6.00 Build 0)  -->
<svg version="1.1" id="Layer_1" xmlns="http://www.w3.org/2000/svg" xmlns:xlink="http://www.w3.org/1999/xlink" x="0px" y="0px"
	 viewBox="0 0 64 64" enable-background="new 0 0 64 64" xml:space="preserve">
<path d="M24.8,24.1c0.8,0.4,3,2.1,2.9,5c2.6-3.3-0.9-6.4,4.2-10.5c0.4,8.7,4.1,8,4.4,13.4c1.8-3.2-1.5-6.5,0.1-9.6
	c0.2,2.3,3.4,4.3,4.6,6.6c2.8,5.4,1.7,13.5-5.9,16.1c0,0,2.6-2.9,0.7-6.2c0,0-0.4,2.4-2.3,3.5c-0.5-0.5-0.9-3.2-0.5-4.7
	c-2.6,1.6-2.5,3.3-2.5,4.6c-0.9-0.3-1.7-1.5-1.3-3.4c-1.7,2.2-0.9,4.4,0,6.3c-2.2-0.6-10.3-5-6.7-12.3
	C23.9,30.1,25.6,27.8,24.8,24.1"/>
<path fill="#D4613D" d="M43.8,9.1C31.1,2.6,15.6,7.5,9.1,20.2C2.6,32.9,7.5,48.4,20.2,54.9s28.2,1.5,34.7-11.1
	C61.4,31.1,56.5,15.6,43.8,9.1 M42,12.6c4.7,2.4,8.2,6.3,10.1,10.9L10.7,36.7c-1.1-4.8-0.5-10,1.9-14.7C18.1,11.3,31.3,7.1,42,12.6
	 M22,51.4C17.3,49,13.9,45,11.9,40.5l41.3-13.2c1.1,4.8,0.5,10-1.9,14.7C45.9,52.7,32.7,56.9,22,51.4"/>
</svg>
