<?xml version="1.0" encoding="utf-8"?>
<!-- Generator: Adobe Illustrator 27.8.0, SVG Export Plug-In . SVG Version: 6.00 Build 0)  -->
<svg version="1.1" id="Layer_1" xmlns="http://www.w3.org/2000/svg" xmlns:xlink="http://www.w3.org/1999/xlink" x="0px" y="0px"
	 viewBox="0 0 64 64" enable-background="new 0 0 64 64" xml:space="preserve">
<path d="M21.1,47.5c0.4-0.2,0.6-0.4,0.8-0.5c0.2-0.1,0.4-0.2,0.6-0.4c0.3-0.2,0.6-0.4,0.9-0.6c0.2-0.1,0.4-0.3,0.6-0.4
	c0.9-0.6,1.8-1.2,2.8-1.9c1.8-1.3,3.5-2.7,5.3-4.2c1.7-1.4,3.3-3,4.9-4.6c1.6-1.6,3.1-3.2,4.6-4.9c1.4-1.6,5.1-5.6,7.5-9.2
	c0.2-0.3,0.5-0.8,0.9-1.4c1.3-1.9,2.5-3.8,3.6-5.7c1.2-1.9,2.3-3.9,3.5-5.9c0,0,0.3-0.5,0.1,0.1c-0.4,1.4-1.7,4.2-2.7,6.3
	c-1,2.1-2.1,4.1-3.3,6c-0.1,0.1-0.4,0.7-0.7,1.1c-1.7,2.6-5.7,8.2-7.3,10.1c-1.5,1.7-3.2,3.4-4.8,4.9c-1.7,1.6-3.4,3.1-5.2,4.5
	c-1.8,1.5-3.7,2.8-5.6,4.1c-2.1,1.4-4.2,2.6-6,3.3c-0.7,0.3-1,0.3-1,0.4c0,0-0.5,0.1-0.6,0.1c0,0-0.1,0-0.1-0.1c0,0,0-0.1,0-0.1
	C19.8,48.4,20.6,47.8,21.1,47.5 M6.9,54.2c3.4,7.6,26.9-2.7,34.5-8.8c1.5-4.1,2.3-10.3,2.3-10.3s0.5,4.6,1.2,7.1
	c7.7-8.1,9.6-17.6,6.5-20.8c-0.1-0.1,0-0.3,0-0.4c0.1-0.2,0.2-0.4,0.3-0.5c1.2-2,2.3-4,3.4-6.1c1.1-2.2,1.7-3.8,2.4-6
	c0.2-0.8,0.3-1.4,0-1.5c-0.2-0.1-0.6,0.2-0.9,0.7c-1.1,1.7-2.2,3.4-3.6,5.7c-1.2,1.9-2.4,3.9-3.6,5.7c-0.1,0.2-0.3,0.4-0.4,0.6
	c0,0-0.3,0.4-0.5,0.3c-3.9-1.2-9,1.1-17.3,8.9c-2.3,2.2-4.5,4.2-6.4,6.1c1.7,0.8,5.4,1.4,5.4,1.4s-6.1,1.4-9.4,2.4
	C6.8,48.4,5.3,50.8,6.9,54.2"/>
</svg>
