<?xml version="1.0" encoding="utf-8"?>
<!-- Generator: Adobe Illustrator 27.8.0, SVG Export Plug-In . SVG Version: 6.00 Build 0)  -->
<svg version="1.1" id="Layer_1" xmlns="http://www.w3.org/2000/svg" xmlns:xlink="http://www.w3.org/1999/xlink" x="0px" y="0px"
	 viewBox="0 0 64 64" enable-background="new 0 0 64 64" xml:space="preserve">
<g>
	<path d="M26,50.5c-2.1,3.5-6.6,4.9-10.2,3.1c-3.7-1.8-5.5-6.1-4.1-9.9c0.5-1.5,1.6-2.7,2.9-3.4c1.2-0.7,1.4-1.6,1.4-2.9
		c0-7.8,0-15.7,0-23.5c0-1.9,0.4-3.5,2.5-4.1c2.2-0.6,4,0.9,4,3.3c0.1,4.1,0,8.3,0,12.4c0,3.8,0.1,7.7,0,11.5c0,1.4,0.4,2.4,1.6,3.3
		C27.5,42.9,28.2,46.8,26,50.5 M25.5,35.7c0.1-3.8,0-7.5,0-11.3c0-3.8,0-7.5,0-11.3c0-1.2-0.1-2.3-0.7-3.4c-1.4-2.5-4.2-3.8-7-3.1
		c-3,0.7-4.9,3.1-5,6.3c0,7.6,0,15.2,0,22.8c0,1-0.1,1.7-0.9,2.5C7,42.5,6.7,49.4,11.1,54c4.4,4.6,11.6,4.7,16.1,0.1
		c4.4-4.5,4.2-11.5-0.5-15.9C25.8,37.5,25.5,36.8,25.5,35.7"/>
	<path d="M39.1,12.8c1,0,1.4,0,1.9,0c1.1,0.1,2.2-0.2,2.2-1.5c0-1.4-1-1.7-2.3-1.7c-1.7,0-3.5,0-5.2,0c-1.5,0-2.1,0.7-2.1,2.1
		c0,1.4,0,2.8,0.1,4.1c0.1,1.3-0.6,3.2,1.5,3.3c2.3,0.1,1.5-1.9,1.8-3.2c0-0.1,0.1-0.1,0.1-0.2c2.8,2.8,5.6,5.6,8.4,8.4
		c-2.3,1.9-4.8,4-7.2,6c-0.9,0.8-2,1.6-0.9,2.9c1.1,1.3,2.1,0.4,3-0.4c2.6-2.1,5.1-4.3,7.7-6.4c2.3-1.9,2.3-2.3,0.2-4.4
		C45.2,19,42.3,16.1,39.1,12.8"/>
	<path d="M47,30.7c-1,0.7-1.9,1.5-2.9,2.3c-2.2,1.8-4.3,3.6-6.5,5.4c-0.7,0.5-1.1,1.2-0.8,2.1c0.3,0.7,0.8,1,1.7,1
		c0.1,0,0.4-0.1,0.7-0.3c3.3-2.7,6.6-5.4,9.8-8.2c0.7-0.6,0.7-1.5,0.1-2.2C48.6,30.3,47.8,30.2,47,30.7"/>
	<path d="M54.2,13.7c-1,0-1.3,0.8-1.3,1.6c0,0.8,0,1.6,0,2.4h0c0,0.8,0,1.6,0,2.4c0,0.8,0.4,1.4,1.3,1.4c0.9,0,1.7-0.4,1.7-1.3
		c0.1-1.7,0.1-3.5,0-5.2C55.8,14.2,55.1,13.7,54.2,13.7"/>
	<path d="M54.2,31.1c1,0,1.7-0.5,1.7-1.5c0-1.6,0.1-3.2,0-4.7c-0.1-1-0.7-1.6-1.7-1.5c-1,0-1.2,0.8-1.3,1.7c0,0.7,0,1.4,0,2.2h0
		c0,0.8,0,1.6,0,2.4C52.9,30.4,53.2,31.1,54.2,31.1"/>
	<path d="M52.9,39.2c0,0.8,0.3,1.4,1.2,1.4c0.9,0,1.7-0.4,1.7-1.2c0.1-1.7,0.1-3.5,0-5.2c-0.1-0.8-0.7-1.4-1.7-1.4
		c-1,0-1.3,0.7-1.3,1.6c0,0.8,0,1.6,0,2.4h0C52.9,37.7,52.9,38.4,52.9,39.2"/>
	<path d="M54.3,42.5c-1,0-1.4,0.6-1.4,1.5c0,0.8,0,1.6,0,2.4h0c0,0.8,0,1.6,0,2.4c0,0.9,0.4,1.5,1.4,1.5c0.9,0,1.6-0.5,1.6-1.4
		c0.1-1.7,0.1-3.3,0-5C55.8,43,55.2,42.5,54.3,42.5"/>
	<path d="M55.1,52.2c-0.7-0.3-1.6-0.3-1.9,0.4c-0.6,1.4-0.7,2.9,0,4.3c0.4,0.7,1.2,0.7,1.9,0.4c1.1-0.6,0.8-1.6,0.8-2.5
		C55.9,53.8,56.2,52.7,55.1,52.2"/>
	<path d="M54.4,11.9c1.8,0,1.6-1.6,1.6-2.8c0-1.2,0.2-2.6-1.5-2.6c-1.9-0.1-1.6,1.4-1.6,2.8C52.9,10.4,52.5,12,54.4,11.9"/>
	<path d="M22.8,43.4c-2.2-1.6-2.1-3.5-2-5.7c0-1.7,0-3.5,0-5.2c0-2.3,0-4.6,0-7c0-1.2,0.5-3-1.5-3c-2.1,0-1.6,1.9-1.6,3.1
		c0,4.4,0,8.8,0,13.3c0,1.6,0,2.9-1.6,4.1c-2.1,1.5-2,4.7-0.3,6.6c1.8,2,4.7,2.1,6.6,0.4C24.3,48.2,24.7,44.8,22.8,43.4"/>
</g>
</svg>
