<?xml version="1.0" encoding="utf-8"?>
<!-- Generator: Adobe Illustrator 27.8.0, SVG Export Plug-In . SVG Version: 6.00 Build 0)  -->
<svg version="1.1" id="Layer_1" xmlns="http://www.w3.org/2000/svg" xmlns:xlink="http://www.w3.org/1999/xlink" x="0px" y="0px"
	 viewBox="0 0 64 64" enable-background="new 0 0 64 64" xml:space="preserve">
<g>
	<path d="M40.2,27c-0.2-0.2-0.5-0.2-0.6,0c-0.2,0.2-0.2,0.5,0,0.6c1.2,1.2,1.8,2.7,1.8,4.4c0,1.7-0.6,3.2-1.8,4.4
		c-0.2,0.2-0.2,0.5,0,0.6c0.1,0.1,0.2,0.1,0.3,0.1c0.1,0,0.2,0,0.3-0.1c1.3-1.3,2.1-3.1,2.1-5C42.3,30.1,41.5,28.3,40.2,27
		 M38.5,28.4c-0.2-0.2-0.5-0.2-0.6,0c-0.2,0.2-0.2,0.5,0,0.6c0.8,0.8,1.2,1.8,1.2,3c0,1.1-0.4,2.2-1.2,3c-0.2,0.2-0.2,0.5,0,0.6
		c0.1,0.1,0.2,0.1,0.3,0.1c0.1,0,0.2,0,0.3-0.1c1-1,1.5-2.2,1.5-3.6C40,30.6,39.5,29.4,38.5,28.4 M41.9,25.8c-0.2-0.2-0.5-0.2-0.6,0
		c-0.2,0.2-0.2,0.5,0,0.6c1.5,1.5,2.3,3.4,2.3,5.5c0,2.1-0.8,4-2.3,5.5c-0.2,0.2-0.2,0.5,0,0.6c0.1,0.1,0.2,0.1,0.3,0.1
		c0.1,0,0.2,0,0.3-0.1c1.6-1.6,2.6-3.8,2.6-6.2C44.4,29.7,43.5,27.5,41.9,25.8 M21.7,32c0-2.1,0.5-3.9,1.3-4.2h-3.5v0
		c-1.2,0.1-2.2,2-2.2,4.2c0,2.2,1,4.1,2.2,4.2v0H23C22.3,35.9,21.7,34.1,21.7,32 M43.5,24.4c-0.2-0.2-0.5-0.2-0.6,0
		c-0.2,0.2-0.2,0.5,0,0.6c1.8,1.8,2.9,4.3,2.9,6.9c0,2.6-1,5.1-2.9,6.9c-0.2,0.2-0.2,0.5,0,0.6c0.1,0.1,0.2,0.1,0.3,0.1
		c0.1,0,0.2,0,0.3-0.1c2-2,3.1-4.7,3.1-7.6C46.7,29.1,45.5,26.4,43.5,24.4 M34.5,23.1c-0.9,0-1.8,1.8-2.2,4.5c1,0.3,2.6,1.4,2.7,4.5
		c0,2.7-1.6,3.9-2.7,4.3c0.4,2.7,1.3,4.6,2.2,4.6c1.4,0,2.6-4,2.6-8.9C37.1,27.1,35.9,23.1,34.5,23.1 M34.3,32
		c0-2.7-1.6-3.2-2.1-3.2C32,29.8,32,30.9,32,32c0,1.1,0.1,2.2,0.2,3.2C32.8,35,34.3,34.3,34.3,32 M31.2,32c0-4.5,0.9-8.2,2.2-8.8
		l-9.3,4.5c-0.8,0-1.5,1.9-1.5,4.3c0,2.4,0.7,4.3,1.5,4.3l9.3,4.6c0,0,0,0,0,0C32.1,40.2,31.2,36.5,31.2,32"/>
	<path fill="#D4613D" d="M32,53.8c-5.3,0-10.2-1.9-14-5.1L48.7,18c3.2,3.8,5.1,8.6,5.1,14C53.8,44,44,53.8,32,53.8 M32,10.2
		c5.3,0,10.2,1.9,14,5.1L15.3,46c-3.2-3.8-5.1-8.6-5.1-14C10.2,20,20,10.2,32,10.2 M32,6.2C17.8,6.2,6.2,17.8,6.2,32
		S17.8,57.8,32,57.8S57.8,46.2,57.8,32S46.2,6.2,32,6.2"/>
</g>
</svg>
