<?xml version="1.0" encoding="utf-8"?>
<!-- Generator: Adobe Illustrator 27.8.0, SVG Export Plug-In . SVG Version: 6.00 Build 0)  -->
<svg version="1.1" id="Layer_1" xmlns="http://www.w3.org/2000/svg" xmlns:xlink="http://www.w3.org/1999/xlink" x="0px" y="0px"
	 viewBox="0 0 64 64" enable-background="new 0 0 64 64" xml:space="preserve">
<g>
	<path d="M44.3,36.9L43.9,36l-4.3,3.8L44.3,36.9z M17,40.8v1.2h19.2l1.3-1.2H17z M38.9,39.8l8-9.2l-0.5-0.8L38.9,39.8z M38.9,40.8
		L37,41.9h10v-1.2H38.9z M42.7,31.1l-1-0.4l0.8-2.1l-3.3-5.2L37.1,29L19,22.1l-1.2,3.1l18.1,6.9l-1.4,3.8l4.6,1.7l1.4-3.8l1,0.4
		L42.7,31.1z M30.4,36.3l6.6,3.5l-6.6-4.3V36.3z M33.1,39.7l3.3,0.5l-3.3-1V39.7z"/>
	<path fill="#D4613D" d="M57.6,31.8C57.5,17.7,46,6.4,31.9,6.4C17.7,6.5,6.4,18,6.4,32.2C6.5,46.3,18,57.6,32.1,57.6
		C46.3,57.5,57.6,46,57.6,31.8 M53.6,31.9c0,5.3-1.8,10.1-4.9,13.9L18.1,15.5c3.7-3.1,8.5-5.1,13.8-5.1
		C43.8,10.3,53.5,19.9,53.6,31.9 M10.4,32.1c0-5.3,1.8-10.1,4.9-13.9l30.6,30.3c-3.7,3.1-8.5,5.1-13.8,5.1
		C20.2,53.7,10.5,44.1,10.4,32.1"/>
</g>
</svg>
