<?xml version="1.0" encoding="utf-8"?>
<!-- Generator: Adobe Illustrator 27.8.0, SVG Export Plug-In . SVG Version: 6.00 Build 0)  -->
<svg version="1.1" id="Layer_1" xmlns="http://www.w3.org/2000/svg" xmlns:xlink="http://www.w3.org/1999/xlink" x="0px" y="0px"
	 viewBox="0 0 64 64" enable-background="new 0 0 64 64" xml:space="preserve">
<g>
	<path d="M38.9,39.9c1.2,0.3,2-0.4,2.8-0.2c2.1,0.5,2.9-0.9,3.6-2.6C42.8,37.1,40.9,38.3,38.9,39.9 M41.3,41.2H24.2
		c-0.8,0-1.4,0.6-1.4,1.4v1.1c0,0.8,0.6,1.4,1.4,1.4h17.1c0.8,0,1.4-0.6,1.4-1.4v-1.1C42.7,41.8,42.1,41.2,41.3,41.2 M27.5,40.2
		c0.1-0.1,0.1-0.1,0.2-0.2c-1.7-1.7-3.7-2.8-6.4-2.9c0.8,1.1,0.9,2.6,2.3,2.6C24.9,39.7,26.2,39.9,27.5,40.2 M43.7,33.7
		c0.3-0.1,0.4-0.4,0.3-0.7c-0.1-1.3,0.1-2.7-0.4-4.2c-3,3.1-5,6.5-6.3,10.4C39.3,37.3,41.1,35.1,43.7,33.7 M23.7,28.4
		c0.9,1.5,1.8,3.1,2.8,4.6c0.7,1.3,1.5,2.5,2.2,3.8c0.2,0.4,0.4,0.7,0.7,1.1c0.1,0.3,0.3,0.3,0.5,0.5c0.4,0.2,0.8,0.5,1.1,0.7
		c0.8,0.4,1.5,0.9,2.3,1.3c0,0,0.1,0.1,0.1,0.1c0.5,0.3,1.5,1.1,1.6,0.1c0.1-0.4,0-0.8,0-1.2l-0.1-2.8c0-0.4,0-0.8,0-1.2
		c0-0.1,0-0.3,0-0.4c0-0.1,0-0.1,0-0.2c-0.1-0.2-0.2-0.3-0.3-0.5c-0.2-0.3-0.4-0.7-0.6-1c-0.8-1.3-1.5-2.5-2.3-3.8
		c-0.9-1.5-1.8-3-2.7-4.6c-0.8-1.3-1.5-2.6-2.3-3.8l-1-1.6c-0.4-0.7-1.3-0.9-2-0.5l-2.9,1.7c-0.7,0.4-0.9,1.3-0.5,2l1,1.7
		C22.1,25.8,22.9,27.1,23.7,28.4"/>
	<path fill="#D4613D" d="M32,53.6c-5.3,0-10.1-1.9-13.8-5l30.5-30.5c3.1,3.8,5,8.6,5,13.8C53.6,43.9,43.9,53.6,32,53.6 M32,10.4
		c5.3,0,10.1,1.9,13.8,5L15.4,45.8c-3.1-3.8-5-8.6-5-13.8C10.4,20.1,20.1,10.4,32,10.4 M32,6.4C17.9,6.4,6.4,17.9,6.4,32
		c0,14.1,11.5,25.6,25.6,25.6c14.1,0,25.6-11.5,25.6-25.6C57.6,17.9,46.1,6.4,32,6.4"/>
</g>
</svg>
