<?xml version="1.0" encoding="utf-8"?>
<!-- Generator: Adobe Illustrator 27.8.0, SVG Export Plug-In . SVG Version: 6.00 Build 0)  -->
<svg version="1.1" id="Layer_1" xmlns="http://www.w3.org/2000/svg" xmlns:xlink="http://www.w3.org/1999/xlink" x="0px" y="0px"
	 viewBox="0 0 64 64" enable-background="new 0 0 64 64" xml:space="preserve">
<g>
	<path d="M27.3,23.8l7.2,7.2l0.1-0.4l1.2,1.3l0.3-0.4l2.5,0.7l0.2-0.5l-2.4-0.6l0.2-0.2l-2.1-1.5c0,0,0.1-0.7-0.7-1.8
		c0,0,0.7-0.1,0.5-1.1c0,0-0.4-2.5-1.8-3.8l3.4-7.5l-3.8,7.2c0,0-1.5-1-3.5,0l-3.8-7.2l3.4,7.5C28.3,22.7,27.4,23.4,27.3,23.8"/>
	<path d="M36.8,40.7l-1.6-2.1l-9-9l-2,1.5l0.2,0.2l-2.4,0.6l0.2,0.5l2.5-0.7l0.4,0.3l1.3-1.3c0,0,0,0.5,0.1,0.9c0,0-0.7,0.9-0.5,2.5
		l-2,2l0.2,0.2l-2.2,1l0.2,0.4l2.3-1.2l0.4,0.3l1.2-1.7l0.2,0.6c0,0-0.6,0.6-0.1,1.5c0,0-0.5,0.7-0.4,1.3L24,40.7l0.2,0.2l-2,1.2
		l0.3,0.4l2.1-1.3l0.4,0.3l1-1.8l0,0.1c0,0-0.8,1,0,2.2c0,0-0.6,1.3,0.7,2.4c0,0-0.2,1.3,1.5,1.9c0,0,0.3,1.3,2.6,1.1
		c0,0,1.6-0.1,1.8-1.1c0,0,1.5-0.5,1.5-1.9c0,0,1.2-0.8,0.7-2.4c0,0,0.8-1,0-2.2l0-0.1l1,1.8l0.4-0.3l2.1,1.3l0.3-0.4l-2-1.2
		L36.8,40.7z"/>
	<path fill="#D4613D" d="M57.8,31.8C57.7,17.6,46.1,6.1,31.8,6.2C17.6,6.3,6.1,17.9,6.2,32.2c0.1,14.2,11.7,25.7,25.9,25.6
		C46.4,57.7,57.9,46.1,57.8,31.8 M53.8,31.9c0,5.3-1.8,10.2-5,14L17.9,15.3c3.8-3.2,8.6-5.1,13.9-5.1C43.9,10.1,53.7,19.8,53.8,31.9
		 M10.2,32.1c0-5.3,1.8-10.2,5-14l30.9,30.5c-3.8,3.2-8.6,5.1-13.9,5.1C20.1,53.9,10.3,44.2,10.2,32.1"/>
</g>
</svg>
