<?xml version="1.0" encoding="utf-8"?>
<!-- Generator: Adobe Illustrator 27.8.0, SVG Export Plug-In . SVG Version: 6.00 Build 0)  -->
<svg version="1.1" id="Layer_1" xmlns="http://www.w3.org/2000/svg" xmlns:xlink="http://www.w3.org/1999/xlink" x="0px" y="0px"
	 viewBox="0 0 64 64" enable-background="new 0 0 64 64" xml:space="preserve">
<g>
	<path d="M56.4,29.6c-0.9-0.1-2.5,0.8-2.5,0.8l-4.4,2.1c-0.8,0.5-1.5,0.9-1.6,0.9c-0.9,0.3-1.5,1-1.5,1c0,1.2-0.2,2.2-1.2,3.1
		c-0.5,0.4-1.2,0.8-1.9,1c-1.6,0.5-3.2,0.8-6.2,0.8c-1.5,0-2.8-0.4-7-0.8c-1-0.1-1.6-0.1-1.5-0.2c0.3-0.5,8.8,0.4,9.8,0.3
		c3.3-0.2,5.8-1,6.5-1.8c0.7-0.8,0.8-1.8,0.5-2.4c-0.4-0.7-1.4-1.1-4.6-1.2c-1.6-0.1-3-0.2-4.4-0.2c-0.5,0-1.2-0.1-1.9-0.4
		c-4.6-2-10.6-4.1-15.1-0.7c-0.3,0.3-0.7,0.6-1,0.9c-0.3,0.3-0.6,0.7-0.8,1c-0.4,0.4-0.8,0.8-1.4,1.4c-0.3,0.3-0.8,0.7-1.5,1.2
		l6.7,9.6c0.4-0.3,0.8-0.6,1.3-0.9l1-0.7c0.9-0.6,1.9-1,3-1h7.8l1.9-0.2c1.3-0.1,2.7-0.5,3.9-0.9l1.4-0.5l4-1.4c0,0,0,0,0,0
		c2.3-0.8,4.4-2.1,6.3-3.6l1.3-1.1c0.5-0.5,1.8-1.6,2.7-2.2c0.6-0.5,1.1-1.1,1.4-1.8c0.1-0.2,0.2-0.4,0.2-0.6
		C57.5,30.4,57.3,29.7,56.4,29.6"/>
	<path d="M17,47.5c0.7,0,1.3,0.6,1.3,1.3c0,0.7-0.6,1.3-1.3,1.3c-0.7,0-1.3-0.6-1.3-1.3C15.7,48,16.3,47.5,17,47.5 M6.5,39.7
		l9.2,13.6l5.7-4.9l-8.8-12.6L6.5,39.7z"/>
	<path d="M40.8,13c3.9,0,7.1,3.2,7.1,7.1s-3.2,7.1-7.1,7.1s-7.1-3.2-7.1-7.1S36.9,13,40.8,13 M34.2,26.7c0.9,0.9,1.9,1.5,3,2
		c1.2,0.5,2.4,0.7,3.7,0.7s2.5-0.2,3.7-0.7c1.1-0.5,2.1-1.2,3-2c0.9-0.9,1.5-1.9,2-3c0.5-1.2,0.7-2.4,0.7-3.7s-0.2-2.5-0.7-3.7
		c-0.5-1.1-1.2-2.1-2-3c-0.9-0.9-1.9-1.5-3-2c-1.2-0.5-2.4-0.7-3.7-0.7s-2.5,0.2-3.7,0.7c-1.1,0.5-2.1,1.2-3,2c-0.9,0.9-1.5,1.9-2,3
		c-0.5,1.2-0.7,2.4-0.7,3.7s0.2,2.5,0.7,3.7C32.7,24.8,33.3,25.9,34.2,26.7"/>
	<path d="M40.7,22.1c-0.4,0-0.9-0.1-1.3-0.4l-0.8-0.5l-0.8,2.2l0.5,0.3c0.4,0.3,0.9,0.5,1.5,0.6v1.3H42v-1.4
		c0.5-0.2,0.9-0.4,1.2-0.8c0.4-0.5,0.7-1.1,0.7-1.8c0-0.7-0.2-1.3-0.6-1.8c-0.4-0.4-0.9-0.8-1.6-1.1c-0.3-0.1-0.7-0.3-0.9-0.5
		c-0.1-0.1-0.1-0.1-0.1-0.2c0-0.1,0-0.1,0.1-0.1c0.1-0.1,0.2-0.1,0.4-0.1c0.6,0,0.9,0.2,1.1,0.3l0.8,0.4l0.8-2.2l-0.6-0.3
		c-0.3-0.2-0.7-0.3-1.1-0.4v-1.2h-2.2v1.4c-0.4,0.2-0.8,0.4-1.1,0.7c-0.4,0.5-0.7,1.1-0.7,1.8c0,0.7,0.3,1.3,0.7,1.8
		c0.4,0.4,0.9,0.7,1.7,1c0.8,0.3,0.8,0.6,0.8,0.7C41.3,22.1,40.8,22.1,40.7,22.1"/>
</g>
</svg>
