<?xml version="1.0" encoding="utf-8"?>
<!-- Generator: Adobe Illustrator 27.8.0, SVG Export Plug-In . SVG Version: 6.00 Build 0)  -->
<svg version="1.1" id="Layer_1" xmlns="http://www.w3.org/2000/svg" xmlns:xlink="http://www.w3.org/1999/xlink" x="0px" y="0px"
	 viewBox="0 0 64 64" enable-background="new 0 0 64 64" xml:space="preserve">
<g>
	<path d="M24.7,29c-1.2-0.4-2.5-1.2-3.5-0.8c-0.9,0.3-1.9,1.3-1.2,2.3c0.8,1,3.7,1.3,3.8,2.9c0.1,1.5-4,3-3.6,4.6
		c0.7,2.7,6.5-2,7.1,1.9c0.1,0.9-1,6.6,1.4,5.2c1.4-0.8,2.1-2.4,3.2-3.4c2.1-2,3.4,1.2,4.3,2.7c0.4,0.6,1.3,1.8,2.1,1.1
		c0.9-0.7,0.7-2.4,0.8-3.4c0-0.9,0.1-2.1,0.8-2.8c0.8-0.9,4.6-0.1,5.6-0.9c1.8-1.5-4-3-3.8-4.3c0.1-1.1,4.2-4,3.8-5.1
		c-0.5-1.2-3.3,0.6-4.2,0.1c-1.3-0.7,0.6-4.8,0.7-5.9c0.3-3.5-5.2,1.9-6.9,0.2c-1.2-1.1-3.2-4.4-4.8-2c-0.5,0.8-0.3,2.2-1.4,2.5
		c-1.1,0.4-3.1-2.1-3.8-0.5c-0.4,0.8,0.3,1.9,0.7,2.4c0.7,0.9,2,2.1,0.9,3.1C26.1,29.2,25.5,29.2,24.7,29"/>
	<path d="M38,48.3c-0.2-0.6,0-1.2,0.4-1.3c0.4-0.1,0.9,0.2,1.1,0.8c0.2,0.6,0,1.2-0.4,1.3C38.7,49.3,38.2,48.9,38,48.3"/>
	<path d="M18.2,38.2c0.5-0.2,1.1,0,1.2,0.4c0.1,0.4-0.2,0.9-0.7,1c-0.5,0.2-1.1,0-1.2-0.4C17.3,38.8,17.7,38.3,18.2,38.2"/>
	<path d="M47.8,26.4c0.5-0.3,1.2-0.2,1.4,0.2c0.2,0.4-0.1,1-0.6,1.3c-0.5,0.3-1.2,0.2-1.4-0.2C47,27.2,47.3,26.7,47.8,26.4"/>
	<path d="M29.6,18.7c-0.2-0.8,0-1.5,0.6-1.7c0.6-0.2,1.2,0.3,1.4,1.1c0.2,0.8,0,1.5-0.6,1.7C30.5,19.9,29.8,19.4,29.6,18.7"/>
	<path d="M16.6,29.3c-1-0.3-1.5-1.1-1.3-1.8c0.2-0.7,1.2-1,2.1-0.7c1,0.3,1.5,1.1,1.3,1.8C18.5,29.3,17.6,29.6,16.6,29.3"/>
	<path fill="#D4613D" d="M32,53.8c-5.3,0-10.2-1.9-13.9-5l30.7-30.7c3.2,3.8,5,8.6,5,13.9C53.8,44,44,53.8,32,53.8 M32,10.2
		c5.3,0,10.2,1.9,13.9,5L15.3,45.9c-3.2-3.8-5-8.6-5-13.9C10.2,20,20,10.2,32,10.2 M32,6.2C17.8,6.2,6.2,17.8,6.2,32
		S17.8,57.8,32,57.8c14.2,0,25.8-11.5,25.8-25.8S46.2,6.2,32,6.2"/>
</g>
</svg>
